<mxfile host="Electron" modified="2024-03-21T15:52:59.420Z" agent="Mozilla/5.0 (Windows NT 10.0; Win64; x64) AppleWebKit/537.36 (KHTML, like Gecko) draw.io/22.0.1 Chrome/114.0.5735.289 Electron/25.8.4 Safari/537.36" etag="TJYW59elOrzeIii4uJ4g" version="22.0.1" type="device">
  <diagram name="Page-1" id="e7010aeb-78dc-98c9-4316-6516fd28bfe3">
    <mxGraphModel dx="4144.5" dy="1194" grid="1" gridSize="10" guides="1" tooltips="1" connect="1" arrows="1" fold="1" page="1" pageScale="1.5" pageWidth="1169" pageHeight="826" background="none" math="0" shadow="0">
      <root>
        <mxCell id="0" style=";html=1;" />
        <mxCell id="1" style=";html=1;" parent="0" />
        <mxCell id="260548aa2b6a5931-6" value="&lt;table style=&quot;width: 100%; height: 100%; border-collapse: collapse;&quot; width=&quot;100%&quot; border=&quot;1&quot;&gt;&lt;tbody&gt;&lt;tr&gt;&lt;th width=&quot;4%&quot;&gt;&lt;font face=&quot;Arial&quot;&gt;Semaines&lt;br&gt;&lt;/font&gt;&lt;/th&gt;&lt;th width=&quot;12%&quot;&gt;&lt;font face=&quot;Arial&quot;&gt;Date&lt;br&gt;&lt;/font&gt;&lt;/th&gt;&lt;th bgcolor=&quot;#FE4F4F&quot; width=&quot;12%&quot;&gt;&lt;font face=&quot;Arial&quot;&gt;Lundi&lt;/font&gt;&lt;/th&gt;&lt;th bgcolor=&quot;#FF954F&quot; width=&quot;12%&quot;&gt;&lt;font face=&quot;Arial&quot;&gt;Mardi&lt;br&gt;&lt;/font&gt;&lt;/th&gt;&lt;th bgcolor=&quot;#FFFF4F&quot; width=&quot;12%&quot;&gt;&lt;font face=&quot;Arial&quot;&gt;Mercredi&lt;br&gt;&lt;/font&gt;&lt;/th&gt;&lt;th bgcolor=&quot;#4FDB4F&quot; width=&quot;12%&quot;&gt;&lt;font face=&quot;Arial&quot;&gt;Jeudi&lt;br&gt;&lt;/font&gt;&lt;/th&gt;&lt;th bgcolor=&quot;#71DBFE&quot; width=&quot;12%&quot;&gt;&lt;font face=&quot;Arial&quot;&gt;Vendredi&lt;br&gt;&lt;/font&gt;&lt;/th&gt;&lt;th bgcolor=&quot;#4F4FDB&quot; width=&quot;12%&quot;&gt;&lt;font face=&quot;Arial&quot;&gt;Samedi&lt;br&gt;&lt;/font&gt;&lt;/th&gt;&lt;th bgcolor=&quot;#964FB8&quot; width=&quot;12%&quot;&gt;&lt;font face=&quot;Arial&quot;&gt;Dimanche&lt;br&gt;&lt;/font&gt;&lt;/th&gt;&lt;/tr&gt;&lt;tr&gt;&lt;td style=&quot;&quot;&gt;1&lt;/td&gt;&lt;td&gt;&amp;nbsp;1er Février&lt;/td&gt;&lt;td&gt;&lt;/td&gt;&lt;td&gt;&lt;/td&gt;&lt;td&gt;&lt;/td&gt;&lt;td&gt;&lt;div style=&quot;text-align: justify;&quot;&gt;&lt;span style=&quot;background-color: initial;&quot;&gt;- Présentation des projets&lt;/span&gt;&lt;/div&gt;&lt;div style=&quot;text-align: justify;&quot;&gt;&lt;span style=&quot;background-color: initial;&quot;&gt;- Étude du travail demandé&lt;/span&gt;&lt;/div&gt;&lt;div style=&quot;text-align: justify;&quot;&gt;&lt;span style=&quot;background-color: initial;&quot;&gt;- Répartition du travail&lt;/span&gt;&lt;/div&gt;&lt;/td&gt;&lt;td&gt;&lt;/td&gt;&lt;td&gt;&lt;/td&gt;&lt;td&gt;&lt;/td&gt;&lt;/tr&gt;&lt;tr&gt;&lt;td style=&quot;&quot;&gt;2&lt;/td&gt;&lt;td&gt;&amp;nbsp;6/02&lt;/td&gt;&lt;td&gt;&lt;/td&gt;&lt;td&gt;&lt;div style=&quot;text-align: justify;&quot;&gt;&lt;span style=&quot;background-color: initial;&quot;&gt;- Chacun étudie son cahier&lt;/span&gt;&lt;/div&gt;&lt;div style=&quot;text-align: justify;&quot;&gt;&lt;span style=&quot;background-color: initial;&quot;&gt;&amp;nbsp; des charges.&lt;/span&gt;&lt;/div&gt;&lt;div style=&quot;text-align: justify;&quot;&gt;&lt;span style=&quot;background-color: initial;&quot;&gt;- Réunion de groupe&lt;/span&gt;&lt;/div&gt;&lt;/td&gt;&lt;td&gt;&lt;/td&gt;&lt;td&gt;&lt;/td&gt;&lt;td&gt;&lt;/td&gt;&lt;td&gt;&lt;/td&gt;&lt;td&gt;&lt;/td&gt;&lt;/tr&gt;&lt;tr&gt;&lt;td style=&quot;&quot;&gt;3&lt;/td&gt;&lt;td&gt;&amp;nbsp;8/02&amp;nbsp;&lt;/td&gt;&lt;td&gt;&lt;/td&gt;&lt;td&gt;&lt;/td&gt;&lt;td&gt;&lt;/td&gt;&lt;td&gt;&lt;div style=&quot;text-align: justify;&quot;&gt;&lt;span style=&quot;background-color: initial;&quot;&gt;- Préparation des questions pour&lt;/span&gt;&lt;/div&gt;&lt;div style=&quot;text-align: justify;&quot;&gt;&lt;span style=&quot;background-color: initial;&quot;&gt;les profs et le cient.&lt;/span&gt;&lt;/div&gt;&lt;div style=&quot;text-align: justify;&quot;&gt;&lt;span style=&quot;background-color: initial;&quot;&gt;- Diagrame des cas d&#39;utilisation&lt;/span&gt;&lt;/div&gt;&lt;div style=&quot;text-align: justify;&quot;&gt;&lt;span style=&quot;background-color: initial;&quot;&gt;- Recherche sur les micros-controleurs&lt;/span&gt;&lt;/div&gt;&lt;div style=&quot;text-align: justify;&quot;&gt;&lt;span style=&quot;background-color: initial;&quot;&gt;- Recherche sur les allumeurs&lt;/span&gt;&lt;/div&gt;&amp;nbsp;&lt;/td&gt;&lt;td&gt;&lt;/td&gt;&lt;td&gt;&lt;/td&gt;&lt;td&gt;&lt;/td&gt;&lt;/tr&gt;&lt;tr&gt;&lt;td style=&quot;&quot;&gt;4&lt;/td&gt;&lt;td style=&quot;&quot;&gt;28/02&lt;/td&gt;&lt;td&gt;&lt;/td&gt;&lt;td&gt;&lt;/td&gt;&lt;td&gt;&lt;div style=&quot;text-align: justify;&quot;&gt;&lt;span style=&quot;background-color: initial;&quot;&gt;- Rencontre avec le client&lt;/span&gt;&lt;/div&gt;&lt;div style=&quot;text-align: justify;&quot;&gt;&lt;span style=&quot;background-color: initial;&quot;&gt;- Mise au propre du journal de bord&lt;/span&gt;&lt;/div&gt;&lt;div style=&quot;text-align: justify;&quot;&gt;&lt;span style=&quot;background-color: initial;&quot;&gt;- Ajout des critères pour le chois de l&#39;automate&lt;/span&gt;&lt;/div&gt;&amp;nbsp;&lt;/td&gt;&lt;td&gt;&lt;/td&gt;&lt;td&gt;&lt;/td&gt;&lt;td&gt;&lt;/td&gt;&lt;td&gt;&lt;/td&gt;&lt;/tr&gt;&lt;tr&gt;&lt;td style=&quot;&quot;&gt;5&lt;/td&gt;&lt;td&gt;29/02&lt;/td&gt;&lt;td&gt;&lt;/td&gt;&lt;td&gt;&lt;/td&gt;&lt;td&gt;&lt;/td&gt;&lt;td&gt;&lt;div style=&quot;text-align: justify;&quot;&gt;&lt;span style=&quot;background-color: initial;&quot;&gt;- Recherches sur le module i2c-PCF8575&lt;/span&gt;&lt;/div&gt;&lt;div style=&quot;text-align: justify;&quot;&gt;&lt;span style=&quot;background-color: initial;&quot;&gt;- Réalisation du programme de test&lt;/span&gt;&lt;/div&gt;&lt;div style=&quot;text-align: justify;&quot;&gt;&lt;span style=&quot;background-color: initial; text-align: center;&quot;&gt;- Schéma de câblage relais /esp / i2c&lt;/span&gt;&lt;/div&gt;&lt;div style=&quot;text-align: justify;&quot;&gt;&lt;span style=&quot;background-color: initial; text-align: center;&quot;&gt;&lt;br&gt;&lt;/span&gt;&lt;/div&gt;&lt;/td&gt;&lt;td&gt;&lt;/td&gt;&lt;td&gt;&lt;/td&gt;&lt;td&gt;&lt;/td&gt;&lt;/tr&gt;&lt;tr&gt;&lt;td style=&quot;&quot;&gt;6&lt;/td&gt;&lt;td&gt;7/03&lt;/td&gt;&lt;td&gt;&lt;/td&gt;&lt;td&gt;&lt;/td&gt;&lt;td&gt;&lt;/td&gt;&lt;td&gt;&lt;p style=&quot;line-height:1.38;margin-top:0pt;margin-bottom:0pt;&quot; dir=&quot;ltr&quot;&gt;&lt;/p&gt;&lt;p style=&quot;text-align: left; line-height: 1.38; margin-top: 0pt; margin-bottom: 0pt;&quot; dir=&quot;ltr&quot;&gt;- Recherches sur la mémoire volatille de l&#39;esp32&lt;/p&gt;&lt;p style=&quot;text-align: left; line-height: 1.38; margin-top: 0pt; margin-bottom: 0pt;&quot; dir=&quot;ltr&quot;&gt;- Écriture/Lecture dans la mémoire de l&#39;esp&lt;/p&gt;&lt;p style=&quot;text-align: left; line-height: 1.38; margin-top: 0pt; margin-bottom: 0pt;&quot; dir=&quot;ltr&quot;&gt;&lt;span style=&quot;background-color: initial;&quot;&gt;- Câblage du RJ45&lt;/span&gt;&lt;/p&gt;&lt;p style=&quot;text-align: left; line-height: 1.38; margin-top: 0pt; margin-bottom: 0pt;&quot; dir=&quot;ltr&quot;&gt;- Recherches sur le traitement du fichier CSV&lt;/p&gt;&lt;p&gt;&lt;/p&gt;&lt;span id=&quot;docs-internal-guid-1945da36-7fff-6828-8cab-b5d026584c9d&quot;&gt;&lt;/span&gt;&lt;/td&gt;&lt;td style=&quot;text-align: left;&quot;&gt;&lt;/td&gt;&lt;td style=&quot;text-align: left;&quot;&gt;&lt;/td&gt;&lt;td style=&quot;text-align: left;&quot;&gt;&lt;/td&gt;&lt;/tr&gt;&lt;tr&gt;&lt;td style=&quot;&quot;&gt;7&lt;/td&gt;&lt;td style=&quot;&quot;&gt;14/03&lt;/td&gt;&lt;td style=&quot;text-align: left;&quot;&gt;&lt;/td&gt;&lt;td style=&quot;text-align: left;&quot;&gt;&lt;/td&gt;&lt;td style=&quot;text-align: left;&quot;&gt;&lt;/td&gt;&lt;td&gt;&lt;div style=&quot;text-align: left;&quot;&gt;&lt;span style=&quot;background-color: initial;&quot;&gt;- Afficher la mémoire disponible de l&#39;esp32&lt;/span&gt;&lt;/div&gt;&lt;div style=&quot;text-align: left;&quot;&gt;&lt;span style=&quot;background-color: initial;&quot;&gt;- Afficher les données qui sont dans la mémoire de l&#39;esp&lt;/span&gt;&lt;/div&gt;&lt;div style=&quot;text-align: left;&quot;&gt;&lt;span style=&quot;background-color: initial;&quot;&gt;-Récupérer un fichier CSV sur un XAMP&lt;/span&gt;&lt;/div&gt;&lt;div style=&quot;text-align: left;&quot;&gt;&lt;span style=&quot;background-color: initial;&quot;&gt;-Enregistrer le fichier CSV sur l&#39;esp&lt;/span&gt;&lt;/div&gt;&lt;div style=&quot;text-align: left;&quot;&gt;&lt;span style=&quot;background-color: initial;&quot;&gt;- Récuperer les données enregistrées dans la mémoire de l&#39;esp&lt;/span&gt;&lt;/div&gt;&lt;div style=&quot;text-align: left;&quot;&gt;&lt;span style=&quot;background-color: initial;&quot;&gt;(temps, n° de sorties)&lt;/span&gt;&lt;/div&gt;&lt;div style=&quot;text-align: left;&quot;&gt;&lt;span style=&quot;background-color: initial;&quot;&gt;- Allumer la sortie indiquée par le csv et l&#39;éteindre après la fin du delay&amp;nbsp;&lt;/span&gt;&lt;/div&gt;&lt;div style=&quot;text-align: left;&quot;&gt;&lt;span style=&quot;background-color: initial;&quot;&gt;qui est aussi dans l&#39;esp&lt;/span&gt;&lt;/div&gt;&lt;/td&gt;&lt;td style=&quot;text-align: left;&quot;&gt;&lt;/td&gt;&lt;td style=&quot;text-align: left;&quot;&gt;&lt;/td&gt;&lt;td style=&quot;text-align: left;&quot;&gt;&lt;/td&gt;&lt;/tr&gt;&lt;tr&gt;&lt;td style=&quot;&quot;&gt;8&lt;/td&gt;&lt;td style=&quot;&quot;&gt;21/03&lt;/td&gt;&lt;td style=&quot;text-align: left;&quot;&gt;&lt;/td&gt;&lt;td style=&quot;text-align: left;&quot;&gt;&lt;/td&gt;&lt;td style=&quot;text-align: left;&quot;&gt;&lt;/td&gt;&lt;td&gt;&lt;div style=&quot;text-align: left;&quot;&gt;&lt;span style=&quot;background-color: initial;&quot;&gt;- Recherches sur le RDC de l&#39;esp 32.&lt;/span&gt;&lt;/div&gt;&lt;div style=&quot;text-align: left;&quot;&gt;&lt;span style=&quot;background-color: initial;&quot;&gt;-Code RDC qui met le temps a 0.&lt;/span&gt;&lt;/div&gt;&lt;div style=&quot;text-align: left;&quot;&gt;&lt;span style=&quot;background-color: initial;&quot;&gt;- Communication Radio -&amp;gt; controle du relais&amp;nbsp;&lt;/span&gt;&lt;/div&gt;&lt;div style=&quot;text-align: left;&quot;&gt;&lt;span style=&quot;background-color: initial;&quot;&gt;- enregistrer plusieurs temps et sorties sur la mémoire de l&#39;esp&lt;/span&gt;&lt;/div&gt;&lt;div style=&quot;text-align: left;&quot;&gt;&lt;span style=&quot;background-color: initial;&quot;&gt;- Trier les sorties en fonction de leur temps ( petit temps &amp;lt; Gros temps )&lt;/span&gt;&lt;/div&gt;&lt;/td&gt;&lt;td&gt;&lt;/td&gt;&lt;td&gt;&lt;/td&gt;&lt;td&gt;&lt;/td&gt;&lt;/tr&gt;&lt;tr&gt;&lt;td style=&quot;&quot;&gt;9&lt;/td&gt;&lt;td&gt;&lt;/td&gt;&lt;td&gt;&lt;/td&gt;&lt;td&gt;&lt;/td&gt;&lt;td&gt;&lt;/td&gt;&lt;td&gt;&lt;/td&gt;&lt;td&gt;&lt;/td&gt;&lt;td&gt;&lt;/td&gt;&lt;td&gt;&lt;/td&gt;&lt;/tr&gt;&lt;tr&gt;&lt;td style=&quot;&quot;&gt;10&lt;/td&gt;&lt;td style=&quot;&quot;&gt;&lt;/td&gt;&lt;td&gt;&lt;/td&gt;&lt;td&gt;&lt;/td&gt;&lt;td&gt;&lt;/td&gt;&lt;td&gt;&lt;/td&gt;&lt;td&gt;&lt;/td&gt;&lt;td&gt;&lt;/td&gt;&lt;td&gt;&lt;/td&gt;&lt;/tr&gt;&lt;tr&gt;&lt;td style=&quot;&quot;&gt;11&lt;/td&gt;&lt;td&gt;&lt;/td&gt;&lt;td&gt;&lt;/td&gt;&lt;td&gt;&lt;/td&gt;&lt;td&gt;&lt;/td&gt;&lt;td&gt;&lt;/td&gt;&lt;td&gt;&lt;/td&gt;&lt;td&gt;&lt;/td&gt;&lt;td&gt;&lt;/td&gt;&lt;/tr&gt;&lt;tr&gt;&lt;td style=&quot;&quot;&gt;12&lt;/td&gt;&lt;td&gt;&lt;/td&gt;&lt;td&gt;&lt;/td&gt;&lt;td&gt;&lt;/td&gt;&lt;td&gt;&lt;/td&gt;&lt;td&gt;&lt;/td&gt;&lt;td&gt;&lt;/td&gt;&lt;td&gt;&lt;/td&gt;&lt;td&gt;&lt;/td&gt;&lt;/tr&gt;&lt;/tbody&gt;&lt;/table&gt;" style="text;html=1;overflow=fill;strokeColor=#000000;strokeWidth=2;fillColor=#ffffff;fontSize=18;fontColor=#000000;align=center;" parent="1" vertex="1">
          <mxGeometry x="-40" y="295" width="2250" height="1055" as="geometry" />
        </mxCell>
      </root>
    </mxGraphModel>
  </diagram>
</mxfile>
